<?xml version="1.0" encoding="utf-8"?>
<!-- Generator: Adobe Illustrator 24.1.1, SVG Export Plug-In . SVG Version: 6.00 Build 0)  -->
<svg version="1.1" id="Слой_1" xmlns="http://www.w3.org/2000/svg" xmlns:xlink="http://www.w3.org/1999/xlink" x="0px" y="0px"
	 viewBox="0 0 151.6 31.3" style="enable-background:new 0 0 151.6 31.3;" xml:space="preserve">
<style type="text/css">
	.st0{fill:#FFFFFF;}
	.st1{fill:#D82222;}
	.st2{fill:#EC1C24;}
	.st3{enable-background:new    ;}
</style>
<g>
	<rect y="0" width="108.9" height="31.3"/>
	<g>
		<path class="st0" d="M15.5,17.3c0.1,0,0.1,0,0.2,0c0.1,0,0.2,0,0.3,0c0.6,0,1-0.2,1.3-0.4c0.3-0.3,0.4-0.7,0.4-1.2
			c0-0.6-0.1-0.9-0.4-1.2S16.6,14,16,14c-0.1,0-0.2,0-0.2,0c-0.1,0-0.2,0-0.2,0v3.3H15.5z M18.9,15.6c0,0.4-0.1,0.8-0.2,1.2
			c-0.1,0.3-0.3,0.6-0.6,0.8c-0.3,0.3-0.6,0.4-1,0.5s-0.8,0.2-1.2,0.2c-0.2,0-0.4,0-0.7-0.1c-0.3,0-0.6-0.1-0.8-0.1v-5
			C14.7,13,15,13,15.2,13c0.3,0.1,0.6,0,0.8,0c0.4,0,0.8,0.1,1.2,0.2c0.3,0.1,0.7,0.3,0.9,0.4c0.3,0.2,0.4,0.5,0.6,0.8
			C18.8,14.8,18.9,15.2,18.9,15.6z"/>
		<path class="st0" d="M19.6,18.3v-5.1h3.5v0.9h-2.3v1h2V16h-2.1v1.2h2.5v0.9L19.6,18.3L19.6,18.3z"/>
		<path class="st0" d="M25.4,18.3c-0.2-0.4-0.4-0.9-0.6-1.3s-0.4-0.9-0.6-1.4c-0.2-0.4-0.3-0.9-0.5-1.3c-0.2-0.4-0.3-0.8-0.4-1.1
			h1.3c0.1,0.3,0.2,0.6,0.3,0.9c0.1,0.3,0.2,0.7,0.3,1c0.1,0.3,0.2,0.7,0.3,1s0.2,0.6,0.3,0.8c0.1-0.2,0.2-0.5,0.3-0.8
			c0.1-0.3,0.2-0.6,0.3-1c0.1-0.3,0.2-0.7,0.3-1c0.1-0.3,0.2-0.7,0.3-0.9h1.2c-0.1,0.3-0.2,0.7-0.4,1.1c-0.2,0.4-0.3,0.8-0.5,1.3
			C27,16,26.8,16.5,26.6,17c-0.2,0.4-0.4,0.9-0.6,1.3H25.4z"/>
		<path class="st0" d="M28.9,18.3v-5.1h3.5v0.9h-2.3v1h2.1V16h-2.1v1.2h2.5v0.9L28.9,18.3L28.9,18.3z"/>
		<path class="st0" d="M36.5,17.3v1h-3.4v-5.1h1.2v4.1H36.5z"/>
		<path class="st0" d="M37.8,15.6c0,0.3,0.1,0.5,0.1,0.7c0.1,0.2,0.2,0.4,0.3,0.5c0.1,0.2,0.3,0.3,0.4,0.3c0.2,0.1,0.3,0.1,0.6,0.1
			c0.2,0,0.4-0.1,0.6-0.1c0.2-0.1,0.3-0.2,0.4-0.3c0.1-0.2,0.2-0.3,0.3-0.5s0.1-0.4,0.1-0.7s-0.1-0.5-0.1-0.7
			c-0.1-0.2-0.2-0.4-0.3-0.5c-0.1-0.2-0.3-0.3-0.4-0.3C39.6,14,39.5,14,39.2,14c-0.2,0-0.4,0.1-0.6,0.1s-0.3,0.2-0.4,0.3
			c-0.1,0.2-0.2,0.3-0.3,0.5C37.8,15.2,37.8,15.4,37.8,15.6z M41.7,15.6c0,0.4-0.1,0.8-0.2,1.2c-0.1,0.3-0.3,0.6-0.6,0.8
			c-0.2,0.2-0.5,0.4-0.8,0.5s-0.7,0.2-1,0.2s-0.7-0.1-1-0.2s-0.6-0.3-0.8-0.5c-0.2-0.2-0.4-0.5-0.6-0.8c-0.1-0.3-0.2-0.7-0.2-1.2
			c0-0.4,0.1-0.8,0.2-1.2c0.1-0.3,0.3-0.6,0.6-0.8c0.2-0.2,0.5-0.4,0.8-0.5s0.6-0.2,1-0.2c0.3,0,0.7,0.1,1,0.2
			c0.3,0.1,0.6,0.3,0.8,0.5s0.4,0.5,0.6,0.8C41.6,14.9,41.7,15.2,41.7,15.6z"/>
		<path class="st0" d="M43.9,13c0.8,0,1.3,0.1,1.8,0.4c0.4,0.3,0.6,0.7,0.6,1.3S46,15.8,45.7,16c-0.4,0.2-1,0.4-1.8,0.4h-0.4v1.7
			h-1.2v-5C42.5,13,42.8,13,43,13C43.5,13.1,43.7,13,43.9,13z M44,14c-0.1,0-0.2,0-0.3,0s-0.2,0-0.2,0v1.5h0.3
			c0.4,0,0.7-0.1,0.9-0.2C45,15.2,45,15,45,14.7c0-0.2,0-0.3-0.1-0.3c-0.1-0.1-0.1-0.2-0.2-0.2c-0.1-0.1-0.2-0.1-0.3-0.1
			C44.3,14,44.1,14,44,14z"/>
		<path class="st0" d="M46.9,18.3v-5.1h3.5v0.9h-2.3v1h2.1V16h-2.1v1.2h2.5v0.9L46.9,18.3L46.9,18.3z"/>
		<path class="st0" d="M52.2,17.3c0.1,0,0.1,0,0.2,0c0.1,0,0.2,0,0.3,0c0.6,0,1-0.2,1.3-0.4c0.3-0.3,0.4-0.7,0.4-1.2
			c0-0.6-0.1-0.9-0.4-1.2c-0.3-0.3-0.7-0.4-1.3-0.4c-0.1,0-0.2,0-0.2,0c-0.1,0-0.2,0-0.2,0L52.2,17.3L52.2,17.3z M55.5,15.6
			c0,0.4-0.1,0.8-0.2,1.2c-0.1,0.3-0.3,0.6-0.6,0.8c-0.3,0.2-0.6,0.4-0.9,0.5c-0.4,0.1-0.8,0.2-1.2,0.2c-0.2,0-0.4,0-0.7-0.1
			c-0.3,0-0.6-0.1-0.8-0.1v-5c0.3-0.1,0.6-0.1,0.8-0.1c0.3,0,0.6-0.1,0.7-0.1c0.4,0,0.8,0.1,1.2,0.2s0.7,0.3,0.9,0.4
			c0.3,0.2,0.4,0.5,0.6,0.8C55.5,14.8,55.5,15.2,55.5,15.6z"/>
		<path class="st0" d="M59.4,18.3c-0.3,0-0.6,0-0.8-0.1c-0.3,0-0.6-0.1-0.9-0.1v-5c0.2-0.1,0.5-0.1,0.8-0.1s0.6-0.1,0.8-0.1
			c0.3,0,0.6,0,0.9,0.1c0.3,0.1,0.5,0.1,0.7,0.2c0.2,0.1,0.3,0.3,0.4,0.4c0.1,0.2,0.2,0.4,0.2,0.7c0,0.4-0.2,0.7-0.6,0.9
			c0.3,0.1,0.6,0.3,0.7,0.5s0.2,0.4,0.2,0.7c0,0.6-0.2,0.9-0.6,1.2C60.8,18.1,60.2,18.3,59.4,18.3z M58.8,16v1.3c0.1,0,0.2,0,0.3,0
			s0.2,0,0.3,0c0.3,0,0.6-0.1,0.8-0.2s0.3-0.3,0.3-0.6c0-0.2-0.1-0.4-0.3-0.5s-0.4-0.2-0.8-0.2L58.8,16L58.8,16z M58.8,15.1h0.6
			c0.3,0,0.6-0.1,0.8-0.1c0.2-0.1,0.2-0.2,0.2-0.4s-0.1-0.3-0.2-0.4C60,14,59.8,14,59.5,14c-0.1,0-0.2,0-0.3,0s-0.2,0-0.3,0
			L58.8,15.1L58.8,15.1z"/>
		<path class="st0" d="M64,15.2c0.2-0.3,0.4-0.7,0.6-1.1c0.2-0.3,0.3-0.7,0.5-1.1h1.3c-0.3,0.6-0.6,1.1-0.9,1.6
			c-0.3,0.5-0.6,1.1-0.9,1.6v2h-1.2v-1.9c-0.3-0.6-0.6-1.1-0.9-1.6c-0.3-0.5-0.6-1.1-0.9-1.6h1.3c0.2,0.3,0.3,0.7,0.5,1.1
			C63.6,14.5,63.8,14.9,64,15.2z"/>
		<path class="st1" d="M69.7,18.3c-0.3,0-0.6,0-0.8-0.1c-0.3,0-0.6-0.1-0.9-0.1v-5c0.2-0.1,0.5-0.1,0.8-0.1c0.3,0,0.6-0.1,0.8-0.1
			c0.3,0,0.6,0,0.9,0.1c0.3,0.1,0.5,0.1,0.7,0.2c0.2,0.1,0.3,0.3,0.4,0.4c0.1,0.2,0.2,0.4,0.2,0.7c0,0.4-0.2,0.7-0.6,0.9
			c0.3,0.1,0.6,0.3,0.7,0.5s0.2,0.4,0.2,0.7c0,0.6-0.2,0.9-0.6,1.2C71.1,18.1,70.5,18.3,69.7,18.3z M69.2,16v1.3c0.1,0,0.2,0,0.3,0
			s0.2,0,0.3,0c0.3,0,0.6-0.1,0.8-0.2c0.2-0.1,0.3-0.3,0.3-0.6c0-0.2-0.1-0.4-0.3-0.5c-0.2-0.1-0.4-0.2-0.8-0.2L69.2,16L69.2,16z
			 M69.2,15.1h0.6c0.3,0,0.6-0.1,0.8-0.1c0.2-0.1,0.2-0.2,0.2-0.4s-0.1-0.3-0.2-0.4C70.3,14,70.1,14,69.8,14c-0.1,0-0.2,0-0.3,0
			s-0.2,0-0.3,0L69.2,15.1L69.2,15.1z"/>
		<path class="st1" d="M73.7,15.6c0,0.3,0.1,0.5,0.1,0.7c0.1,0.2,0.2,0.4,0.3,0.5c0.1,0.2,0.3,0.3,0.4,0.3c0.2,0.1,0.3,0.1,0.6,0.1
			c0.2,0,0.4-0.1,0.6-0.1c0.2-0.1,0.3-0.2,0.4-0.3c0.1-0.2,0.2-0.3,0.3-0.5c0.1-0.2,0.1-0.4,0.1-0.7s-0.1-0.5-0.1-0.7
			c-0.1-0.2-0.2-0.4-0.3-0.5c-0.1-0.2-0.3-0.3-0.4-0.3S75.3,14,75.1,14s-0.4,0.1-0.6,0.1c-0.2,0.1-0.3,0.2-0.4,0.3
			c-0.1,0.2-0.2,0.3-0.3,0.5C73.7,15.2,73.7,15.4,73.7,15.6z M77.6,15.6c0,0.4-0.1,0.8-0.2,1.2c-0.1,0.3-0.3,0.6-0.6,0.8
			c-0.2,0.2-0.5,0.4-0.8,0.5s-0.7,0.2-1,0.2s-0.7-0.1-1-0.2s-0.6-0.3-0.8-0.5c-0.2-0.2-0.4-0.5-0.6-0.8c-0.1-0.3-0.2-0.7-0.2-1.2
			c0-0.4,0.1-0.8,0.2-1.2c0.1-0.3,0.3-0.6,0.6-0.8c0.2-0.2,0.5-0.4,0.8-0.5s0.6-0.2,1-0.2c0.3,0,0.7,0.1,1,0.2
			c0.3,0.1,0.6,0.3,0.8,0.5c0.2,0.2,0.4,0.5,0.6,0.8C77.6,14.9,77.6,15.2,77.6,15.6z"/>
		<path class="st0" d="M77.8,12.1h1.1l2.5,7.2h-1.1L77.8,12.1z"/>
		<path class="st0" d="M82.9,18c-0.3,0-0.6,0-0.8-0.1c-0.3,0-0.6-0.1-0.9-0.1v-5c0.2-0.1,0.5-0.1,0.8-0.1s0.6-0.1,0.8-0.1
			c0.3,0,0.6,0,0.9,0.1s0.5,0.1,0.7,0.2s0.3,0.3,0.4,0.4c0.1,0.2,0.2,0.4,0.2,0.7c0,0.4-0.2,0.7-0.6,0.9c0.3,0.1,0.6,0.3,0.7,0.5
			s0.2,0.4,0.2,0.7c0,0.6-0.2,0.9-0.6,1.2C84.3,17.8,83.8,18,82.9,18z M82.3,15.6V17c0.1,0,0.2,0,0.3,0c0.1,0,0.2,0,0.3,0
			c0.3,0,0.6-0.1,0.8-0.2s0.3-0.3,0.3-0.6c0-0.2-0.1-0.4-0.3-0.5c-0.2-0.1-0.4-0.2-0.8-0.2L82.3,15.6L82.3,15.6z M82.3,14.8h0.6
			c0.3,0,0.6-0.1,0.8-0.1c0.2-0.1,0.2-0.2,0.2-0.4s-0.1-0.3-0.2-0.4c-0.2-0.1-0.4-0.1-0.7-0.1c-0.1,0-0.2,0-0.3,0
			c-0.1,0-0.2,0-0.3,0L82.3,14.8L82.3,14.8z"/>
		<path class="st0" d="M86.9,15.3c0,0.3,0.1,0.5,0.1,0.7c0.1,0.2,0.2,0.4,0.3,0.5c0.1,0.2,0.3,0.3,0.4,0.3c0.2,0.1,0.3,0.1,0.6,0.1
			s0.4-0.1,0.6-0.1c0.2-0.1,0.3-0.2,0.4-0.3c0.1-0.2,0.2-0.3,0.3-0.5c0.1-0.2,0.1-0.4,0.1-0.7s-0.1-0.5-0.1-0.7
			c-0.1-0.2-0.2-0.4-0.3-0.5c-0.1-0.2-0.3-0.3-0.4-0.3c-0.2-0.1-0.3-0.1-0.6-0.1s-0.4,0.1-0.6,0.1c-0.2,0.1-0.3,0.2-0.4,0.3
			c-0.1,0.2-0.2,0.3-0.3,0.5C86.9,14.9,86.9,15.1,86.9,15.3z M90.8,15.3c0,0.4-0.1,0.8-0.2,1.2c-0.1,0.3-0.3,0.6-0.6,0.8
			c-0.2,0.2-0.5,0.4-0.8,0.5s-0.7,0.2-1,0.2s-0.7-0.1-1-0.2s-0.6-0.3-0.8-0.5c-0.2-0.2-0.4-0.5-0.6-0.8c-0.1-0.3-0.2-0.7-0.2-1.2
			c0-0.4,0.1-0.8,0.2-1.2c0.1-0.3,0.3-0.6,0.6-0.8c0.2-0.2,0.5-0.4,0.8-0.5s0.6-0.2,1-0.2c0.3,0,0.7,0.1,1,0.2s0.6,0.3,0.8,0.5
			c0.2,0.2,0.4,0.5,0.6,0.8C90.8,14.5,90.8,14.9,90.8,15.3z"/>
	</g>
</g>
<g>
	<rect x="108.9" y="0" class="st2" width="42.7" height="31.3"/>
	<g class="st3">
		<path class="st0" d="M123.3,13.4c0,0.3-0.1,0.6-0.2,0.8c-0.1,0.3-0.3,0.5-0.5,0.8c-0.2,0.3-0.4,0.5-0.6,0.8
			c-0.2,0.2-0.5,0.5-0.7,0.7c-0.1,0.1-0.3,0.3-0.4,0.4s-0.3,0.3-0.5,0.5c-0.1,0.2-0.3,0.3-0.4,0.5c-0.1,0.2-0.2,0.3-0.2,0.4h3.7v1.2
			h-5.3c0-0.1,0-0.1,0-0.2c0-0.1,0-0.2,0-0.2c0-0.4,0.1-0.7,0.2-1.1s0.3-0.6,0.5-0.9c0.2-0.3,0.4-0.5,0.7-0.8
			c0.2-0.2,0.5-0.5,0.7-0.7c0.2-0.2,0.4-0.4,0.6-0.5c0.2-0.2,0.3-0.4,0.5-0.5s0.2-0.3,0.3-0.5c0.1-0.2,0.1-0.4,0.1-0.6
			c0-0.4-0.1-0.7-0.4-0.9c-0.2-0.2-0.5-0.3-0.9-0.3c-0.2,0-0.4,0-0.6,0.1c-0.2,0.1-0.4,0.1-0.5,0.2c-0.1,0.1-0.3,0.2-0.4,0.3
			s-0.2,0.2-0.3,0.2l-0.7-1c0.3-0.3,0.7-0.6,1.2-0.8s0.9-0.3,1.5-0.3c0.9,0,1.5,0.2,2,0.6S123.3,12.6,123.3,13.4z"/>
		<path class="st0" d="M130.6,15.3c0,1.4-0.3,2.5-0.8,3.2s-1.2,1.1-2.1,1.1s-1.6-0.4-2.1-1.1s-0.8-1.8-0.8-3.2
			c0-0.7,0.1-1.3,0.2-1.9c0.1-0.5,0.3-1,0.6-1.4s0.6-0.6,0.9-0.8c0.4-0.2,0.8-0.3,1.2-0.3c0.9,0,1.6,0.4,2.1,1.1
			S130.6,13.9,130.6,15.3z M129.1,15.3c0-0.4,0-0.8-0.1-1.2s-0.1-0.7-0.2-1c-0.1-0.3-0.3-0.5-0.4-0.7s-0.4-0.2-0.7-0.2
			s-0.5,0.1-0.7,0.2s-0.3,0.4-0.4,0.7c-0.1,0.3-0.2,0.6-0.2,1s-0.1,0.8-0.1,1.2s0,0.8,0.1,1.2c0,0.4,0.1,0.7,0.2,1
			c0.1,0.3,0.3,0.5,0.4,0.7c0.2,0.2,0.4,0.2,0.7,0.2s0.5-0.1,0.7-0.2c0.2-0.2,0.3-0.4,0.4-0.7c0.1-0.3,0.2-0.6,0.2-1
			C129.1,16.2,129.1,15.8,129.1,15.3z"/>
		<path class="st0" d="M136.9,13.4c0,0.3-0.1,0.6-0.2,0.8c-0.1,0.3-0.3,0.5-0.5,0.8c-0.2,0.3-0.4,0.5-0.6,0.8
			c-0.2,0.2-0.5,0.5-0.7,0.7c-0.1,0.1-0.3,0.3-0.4,0.4s-0.3,0.3-0.5,0.5c-0.1,0.2-0.3,0.3-0.4,0.5c-0.1,0.2-0.2,0.3-0.2,0.4h3.7v1.2
			h-5.3c0-0.1,0-0.1,0-0.2c0-0.1,0-0.2,0-0.2c0-0.4,0.1-0.7,0.2-1.1s0.3-0.6,0.5-0.9c0.2-0.3,0.4-0.5,0.7-0.8
			c0.2-0.2,0.5-0.5,0.7-0.7c0.2-0.2,0.4-0.4,0.6-0.5c0.2-0.2,0.3-0.4,0.5-0.5s0.2-0.3,0.3-0.5c0.1-0.2,0.1-0.4,0.1-0.6
			c0-0.4-0.1-0.7-0.4-0.9c-0.2-0.2-0.5-0.3-0.9-0.3c-0.2,0-0.4,0-0.6,0.1c-0.2,0.1-0.4,0.1-0.5,0.2c-0.1,0.1-0.3,0.2-0.4,0.3
			s-0.2,0.2-0.3,0.2l-0.7-1c0.3-0.3,0.7-0.6,1.2-0.8s0.9-0.3,1.5-0.3c0.9,0,1.5,0.2,2,0.6S136.9,12.6,136.9,13.4z"/>
		<path class="st0" d="M139.1,12.9c0.5-0.2,0.9-0.4,1.4-0.7c0.5-0.3,0.9-0.6,1.2-1h1v8.3h-1.5v-6.4c-0.2,0.2-0.5,0.3-0.8,0.5
			c-0.3,0.2-0.6,0.3-0.9,0.4L139.1,12.9z"/>
	</g>
</g>
</svg>
